<svg width="266" height="56" viewBox="0 0 266 56" fill="none" xmlns="http://www.w3.org/2000/svg">
<g clip-path="url(#clip0_232_2443)">
<path d="M127.647 54.3066H126.908V43.9531H127.647V48.6863H133.931V43.9531H134.67V54.3066H133.931V49.4248H127.647V54.3066Z" fill="#D01B50"/>
<path d="M145.245 54.3066H144.432L142.009 50.0145H138.668V54.3066H137.93V43.9531H141.85C142.45 43.9531 142.995 44.0869 143.486 44.3546C143.971 44.6222 144.353 44.989 144.625 45.4499C144.898 45.9158 145.032 46.4263 145.032 46.9863C145.032 47.6851 144.824 48.3047 144.402 48.835C143.981 49.3702 143.431 49.7221 142.752 49.9006L145.25 54.3066H145.245ZM138.663 44.6916V49.2761H141.845C142.574 49.2761 143.163 49.063 143.614 48.6318C144.065 48.2006 144.288 47.6554 144.288 46.9814C144.288 46.3073 144.065 45.7621 143.614 45.3309C143.168 44.9047 142.579 44.6866 141.845 44.6866H138.663V44.6916Z" fill="#D01B50"/>
<path d="M151.311 50.3106H147.094V49.6465H151.311V50.3106Z" fill="#D01B50"/>
<path d="M154.561 54.3066H153.822V43.9531H161.589V54.3066H160.85V44.6916H154.566V54.3066H154.561Z" fill="#D01B50"/>
<path d="M164.848 54.3066V43.9531H168.545C169.174 43.9531 169.744 44.0919 170.255 44.3744C170.76 44.6569 171.157 45.0385 171.444 45.5292C171.732 46.0199 171.871 46.5502 171.871 47.135C171.871 47.7198 171.727 48.2501 171.444 48.7408C171.157 49.2265 170.76 49.6131 170.255 49.8956C169.749 50.1781 169.179 50.3169 168.545 50.3169H165.586V54.3116H164.848V54.3066ZM168.545 49.5734C169.055 49.5734 169.506 49.4694 169.898 49.2562C170.29 49.0431 170.592 48.7507 170.81 48.384C171.028 48.0122 171.137 47.5959 171.137 47.135C171.137 46.6741 171.028 46.2528 170.81 45.886C170.592 45.5143 170.29 45.2269 169.898 45.0137C169.506 44.8006 169.055 44.6966 168.545 44.6966H165.586V49.5784H168.545V49.5734Z" fill="#D01B50"/>
<path d="M174.815 54.3066H174.166V43.9531H174.904V52.9932H174.934L181.724 43.9531H182.373V54.3066H181.635V45.2665H181.605L174.815 54.3066Z" fill="#D01B50"/>
<path d="M187.119 43.9522H193.389V54.3057H192.65V44.6907H187.843L187.768 47.0548C187.709 49.0373 187.565 50.5687 187.342 51.6492C187.119 52.7296 186.817 53.4681 186.45 53.8596C186.078 54.2561 185.622 54.4494 185.082 54.4494C184.814 54.4494 184.532 54.39 184.225 54.271V53.5623C184.542 53.6614 184.814 53.711 185.037 53.711C185.424 53.711 185.751 53.5425 186.019 53.2005C186.291 52.8585 186.514 52.2043 186.693 51.2329C186.871 50.2615 186.985 48.8688 187.035 47.0548L187.124 43.9473L187.119 43.9522Z" fill="#D01B50"/>
<path d="M198.528 53.7477C197.725 53.2769 197.086 52.6276 196.615 51.8098C196.144 50.9921 195.906 50.1 195.906 49.1335C195.906 48.167 196.144 47.2749 196.615 46.4572C197.086 45.6394 197.725 44.9951 198.528 44.5193C199.331 44.0484 200.208 43.8105 201.155 43.8105C202.101 43.8105 202.974 44.0484 203.782 44.5193C204.585 44.9951 205.224 45.6394 205.695 46.4572C206.166 47.2749 206.403 48.167 206.403 49.1335C206.403 50.1 206.166 50.9921 205.695 51.8098C205.224 52.6276 204.585 53.2769 203.782 53.7477C202.979 54.2185 202.101 54.4564 201.155 54.4564C200.208 54.4564 199.331 54.2185 198.528 53.7477ZM203.435 53.1084C204.124 52.702 204.669 52.1518 205.07 51.453C205.467 50.7542 205.67 49.981 205.67 49.1285C205.67 48.2761 205.472 47.5079 205.07 46.8041C204.669 46.1053 204.124 45.5502 203.435 45.1487C202.746 44.7423 201.987 44.5441 201.155 44.5441C200.322 44.5441 199.564 44.7473 198.875 45.1487C198.186 45.5502 197.641 46.1053 197.239 46.8041C196.843 47.5029 196.64 48.281 196.64 49.1285C196.64 49.9761 196.838 50.7492 197.239 51.453C197.641 52.1518 198.186 52.7069 198.875 53.1084C199.564 53.5098 200.322 53.713 201.155 53.713C201.987 53.713 202.741 53.5098 203.435 53.1084Z" fill="#D01B50"/>
<path d="M208.11 54.3057H207.223L211.515 48.2393L207.594 43.9473H208.556L213.586 49.4932V43.9473H214.325V49.4932L219.355 43.9473H220.317L216.397 48.2393L220.684 54.3057H219.797L215.876 48.7895L214.32 50.534V54.3057H213.581V50.534L212.03 48.7895L208.11 54.3057Z" fill="#D01B50"/>
<path d="M229.775 54.3066H222.678V43.9531H229.631V44.6916H223.421V48.5376H228.452V49.2761H223.421V53.5681H229.78V54.3066H229.775Z" fill="#D01B50"/>
<path d="M232.957 54.3066H232.219V43.9531H232.957V48.6863H239.242V43.9531H239.98V54.3066H239.242V49.4248H232.957V54.3066Z" fill="#D01B50"/>
<path d="M243.888 54.3066H243.238V43.9531H243.977V52.9932H244.006L250.796 43.9531H251.446V54.3066H250.707V45.2665H250.678L243.888 54.3066Z" fill="#D01B50"/>
<path d="M261.798 54.3066H254.701V43.9531H261.655V44.6916H255.445V48.5376H260.475V49.2761H255.445V53.5681H261.803V54.3066H261.798Z" fill="#D01B50"/>
<path d="M130.08 9.38797V1.45311H127.305V0.134766H134.313V1.45807H131.537V9.38797H130.085H130.08Z" fill="#D01B50"/>
<path d="M135.9 9.38797V0.134766H142.443V1.45807H137.353V3.93121H141.382V5.25451H137.353V8.06963H142.576V9.39293H135.9V9.38797Z" fill="#D01B50"/>
<path d="M143.305 9.38797L146.61 4.57551L143.572 0.134766H145.302L147.537 3.48019H147.562L149.797 0.134766H151.502L148.464 4.53586L151.77 9.38797H150.04L147.542 5.64605H147.517L145.02 9.38797H143.315H143.305Z" fill="#D01B50"/>
<path d="M153.42 9.38797V0.134766H154.872V4.03529H159.432V0.134766H160.884V9.38797H159.432V5.35363H154.872V9.38797H153.42Z" fill="#D01B50"/>
<path d="M162.939 4.75794C162.939 2.11629 165.056 0 167.831 0C170.607 0 172.723 2.11629 172.723 4.75794C172.723 7.39959 170.607 9.51589 167.831 9.51589C165.056 9.51589 162.939 7.39959 162.939 4.75794ZM171.266 4.75794C171.266 2.8399 169.744 1.3233 167.831 1.3233C165.918 1.3233 164.397 2.84485 164.397 4.75794C164.397 6.67103 165.918 8.19754 167.831 8.19754C169.744 8.19754 171.266 6.67599 171.266 4.75794Z" fill="#D01B50"/>
<path d="M174.771 9.38797V0.134766H182.24V9.38797H180.788V1.45311H176.229V9.38302H174.776L174.771 9.38797Z" fill="#D01B50"/>
<path d="M184.291 4.75794C184.291 2.11629 186.407 0 189.183 0C191.958 0 194.075 2.11629 194.075 4.75794C194.075 7.39959 191.958 9.51589 189.183 9.51589C186.407 9.51589 184.291 7.39959 184.291 4.75794ZM192.622 4.75794C192.622 2.8399 191.101 1.3233 189.188 1.3233C187.275 1.3233 185.753 2.84485 185.753 4.75794C185.753 6.67103 187.275 8.19754 189.188 8.19754C191.101 8.19754 192.622 6.67599 192.622 4.75794Z" fill="#D01B50"/>
<path d="M196.922 0.133862H203.068V9.38707H201.615V1.45221H198.325L198.285 2.90437C198.151 8.32645 197.071 9.51593 195.336 9.51593C194.954 9.51593 194.622 9.39698 194.479 9.31768V7.99438C194.622 8.0489 194.915 8.1282 195.207 8.1282C196.064 8.1282 196.753 7.33521 196.857 2.90437L196.922 0.128906V0.133862Z" fill="#D01B50"/>
<path d="M205.719 9.38797V0.134766H207.171V7.009H207.211L212.261 0.134766H213.584V9.38797H212.132V2.51374H212.107L207.042 9.38797H205.719Z" fill="#D01B50"/>
<path d="M215.631 4.75794C215.631 2.11629 217.747 0 220.523 0C222.361 0 223.655 0.97637 224.289 1.76936L223.273 2.602C222.773 2.03204 221.95 1.31835 220.523 1.31835C218.605 1.31835 217.088 2.8399 217.088 4.75299C217.088 6.66608 218.61 8.19258 220.523 8.19258C221.95 8.19258 222.798 7.47889 223.338 6.86928L224.354 7.70192C223.68 8.53456 222.356 9.51093 220.523 9.51093C217.747 9.51093 215.631 7.39464 215.631 4.75299V4.75794Z" fill="#D01B50"/>
<path d="M127.3 36.4495V14.7266H130.868L138.749 24.8421H138.813L146.728 14.7266H150.202V36.4495H146.322V21.1498H146.198L138.749 30.6756L131.3 21.1498H131.176V36.4495H127.295H127.3Z" fill="#D01B50"/>
<path d="M153.641 25.5912C153.641 19.3513 158.636 14.3555 165.248 14.3555C171.86 14.3555 176.855 19.3513 176.855 25.5912C176.855 31.831 171.86 36.8268 165.248 36.8268C158.636 36.8268 153.641 31.831 153.641 25.5912ZM172.945 25.5912C172.945 21.309 169.53 17.8942 165.248 17.8942C160.966 17.8942 157.551 21.309 157.551 25.5912C157.551 29.8733 160.966 33.2881 165.248 33.2881C169.53 33.2881 172.945 29.8733 172.945 25.5912Z" fill="#D01B50"/>
<path d="M179.508 25.5912C179.508 19.3513 184.504 14.3555 191.115 14.3555C195.551 14.3555 198.594 16.6502 200.145 18.5137L197.474 20.8084C196.235 19.4752 194.371 17.8892 191.11 17.8892C186.798 17.8892 183.413 21.304 183.413 25.5862C183.413 29.8683 186.793 33.2832 191.11 33.2832C194.366 33.2832 196.324 31.7021 197.598 30.2748L200.299 32.5695C198.683 34.4925 195.551 36.8219 191.115 36.8219C184.504 36.8219 179.508 31.826 179.508 25.5862V25.5912Z" fill="#D01B50"/>
<path d="M204.115 36.4495V14.7266H207.996V24.8768L217.274 14.7266H222.086L213.829 23.727L222.706 36.4495H218.022L211.227 26.5818L208.001 30.1205V36.4495H204.12H204.115Z" fill="#D01B50"/>
<path d="M226.086 36.4495V14.7266H234.992C239.056 14.7266 241.698 17.3633 241.698 20.4658C241.698 22.6366 240.394 24.1879 238.937 24.8124C240.518 25.4022 242.783 27.231 242.783 30.1502C242.783 33.5353 239.864 36.4495 235.523 36.4495H226.091H226.086ZM229.962 23.4792H234.898C236.638 23.4792 237.783 22.3294 237.783 20.7483C237.783 19.1673 236.633 17.9877 234.898 17.9877H229.962V23.4792ZM229.962 33.1933H235.423C237.441 33.1933 238.868 31.7362 238.868 29.8727C238.868 28.0092 237.441 26.5818 235.423 26.5818H229.962V33.1933Z" fill="#D01B50"/>
<path d="M244.177 36.4495L252.771 14.7266H257.053L265.617 36.4495H261.489L259.472 31.1117H250.223L248.176 36.4495H244.172H244.177ZM251.532 27.7019H258.173L254.882 18.9839H254.818L251.527 27.7019H251.532Z" fill="#D01B50"/>
<path d="M0.00390625 8.6049V9.57631L11.8938 0.134766H10.6696L0.00390625 8.6049Z" fill="#D01B50"/>
<path d="M111.399 17.3526L105.313 0.134766H104.307L110.433 17.4666C109.298 17.8036 108.47 18.8444 108.47 20.0933C108.47 20.589 108.609 21.0499 108.842 21.4513L103.742 25.5253C103.995 21.8379 104.247 18.1654 104.485 14.7605C105.63 14.4334 106.483 13.3876 106.483 12.1287C106.483 10.6766 105.363 9.51188 103.95 9.40284L101.417 0.134766H100.441L102.999 9.49701C102.652 9.59613 102.334 9.75473 102.062 9.96785L95.2074 4.96705L95.2569 0.134766H94.3103L94.2657 4.2831L88.5859 0.134766H86.9801L94.2607 5.4478L94.003 30.7938C93.6363 30.8384 93.2943 30.9573 92.987 31.1308L89.2451 26.7247L76.9736 0.134766H75.9278L86.9504 24.0434L71.1699 5.46267V0.134766H70.2331V4.35744L66.6498 0.134766H65.0291L53.729 27.374L41.2939 25.6245C41.1799 24.2119 40.0152 23.0968 38.5779 23.0869C37.9584 18.1604 37.1555 11.7323 36.303 4.8481L46.042 0.134766H43.8662L36.1841 3.85191C36.0305 2.62277 35.8768 1.38373 35.7281 0.134766H34.7815C34.955 1.53737 35.1235 2.93006 35.292 4.28805L7.89912 17.5459L0.00390625 15.5634V16.5348L6.57582 18.1852L0.00390625 21.3671V22.4128L8.0032 18.5421L35.8471 25.5253C35.8372 25.6294 35.8173 25.7335 35.8173 25.8376C35.8173 26.4026 35.9908 26.9329 36.2882 27.369L21.8508 43.3478L0.00390625 32.3252V33.3809L21.1916 44.0764L10.4218 56.0009H11.6906L22.0639 44.5175L39.7426 53.4436C39.589 53.7657 39.5047 54.1226 39.4899 54.4943L27.2877 56.0009H35.0343L39.6237 55.4359C39.6881 55.6391 39.7972 55.8225 39.9062 56.0009H44.6394L44.6096 55.9613C44.8426 55.5599 44.9813 55.0989 44.9813 54.5984C44.9813 53.8698 44.6889 53.2156 44.228 52.72L47.2265 45.4889C48.8373 48.9086 50.5273 52.487 52.1876 56.0059H53.2334C51.4393 52.1996 49.5658 48.2296 47.7172 44.3093L54.3089 28.4148L70.2282 30.655V56.0109H71.1649V30.7888L91.3614 33.6287L91.8768 34.7488C91.8768 34.7488 91.8818 34.7637 91.8867 34.7686L92.4071 35.9036C88.4323 42.2079 83.9073 49.3448 79.6549 56.0059H80.7898C84.1055 50.8118 88.0853 44.5274 92.8829 36.9246L94.0129 39.3779L94.1666 56.0059H95.1083L94.9695 41.4595L99.8117 51.9617C98.9444 52.4226 98.3447 53.3246 98.3447 54.3704C98.3447 54.9849 98.5528 55.5499 98.8997 56.0059H103.286C103.628 55.5499 103.841 54.9899 103.841 54.3704C103.841 53.5229 103.445 52.7745 102.835 52.2739L111.32 22.8341C112.777 22.7697 113.952 21.5752 113.952 20.0983C113.952 18.6214 112.807 17.4467 111.379 17.3575L111.399 17.3526ZM36.1098 24.6233L9.32155 17.9027L35.4109 5.27929C36.3724 13.0803 37.215 19.791 37.6511 23.2504C36.9771 23.4883 36.422 23.984 36.1098 24.6233ZM43.4548 52.145C43.0881 51.9617 42.6767 51.8477 42.2356 51.8477C41.4724 51.8477 40.7785 52.1599 40.2829 52.6605L22.7181 43.7939L36.9424 28.053C37.3984 28.39 37.9584 28.5932 38.568 28.5932C38.801 28.5932 39.024 28.5585 39.2371 28.499C40.838 31.9039 43.5936 37.7572 46.6962 44.339L43.4598 52.145H43.4548ZM47.1819 43.1545C44.6592 37.8018 42.2108 32.5978 40.0995 28.1224C40.6397 27.7556 41.0313 27.2055 41.2097 26.5612L53.3573 28.2711L47.1819 43.1545ZM70.2331 29.6935L54.6856 27.5078L65.837 0.635341L70.2331 5.81456V29.6984V29.6935ZM71.1748 29.8273V6.91979L88.4323 27.2352L90.9054 32.6028L71.1748 29.8273ZM91.8471 32.3897L90.7072 29.9165L92.2485 31.7305C92.08 31.9238 91.9561 32.1518 91.8471 32.3897ZM93.5669 36.1266C93.7057 36.1663 93.8444 36.2059 93.9931 36.2257L94.003 37.0633L93.5718 36.1217L93.5669 36.1266ZM95.1975 6.13176L101.417 10.6716C101.15 11.0979 100.986 11.5935 100.986 12.1337C100.986 13.5809 102.106 14.7555 103.539 14.8596C103.236 19.1219 102.974 22.9332 102.741 26.3332L96.2432 31.5273C95.8864 31.1853 95.4403 30.9424 94.9447 30.8285L95.1975 6.13176ZM101.12 51.6197C100.986 51.6197 100.862 51.6395 100.734 51.6593L94.9645 39.1499L94.9348 36.1911C96.1639 35.9185 97.0858 34.8231 97.0858 33.5048C97.0858 33.0687 96.9767 32.6672 96.7983 32.3004L102.652 27.6218C101.7 41.4099 101.279 48.2495 101.15 51.6246C101.15 51.6246 101.13 51.6246 101.12 51.6246V51.6197ZM102.082 51.5453C102.329 46.7775 102.974 36.8601 103.658 26.8139L109.451 22.1849C109.724 22.4178 110.041 22.5913 110.393 22.7053L102.082 51.5503V51.5453Z" fill="#D01B50"/>
</g>
<defs>
<clipPath id="clip0_232_2443">
<rect width="265.617" height="56" fill="white"/>
</clipPath>
</defs>
</svg>
